HIERARCHY
ROOT Hips
{
	OFFSET 0.0000 0.0000 0.0000
	CHANNELS 6 Xposition Yposition Zposition Zrotation Xrotation Yrotation
	JOINT Ab
	{
		OFFSET -0.0000 8.0846 -0.0000
		CHANNELS 3 Zrotation Xrotation Yrotation
		JOINT Chest
		{
			OFFSET -0.0000 25.0068 -0.0000
			CHANNELS 3 Zrotation Xrotation Yrotation
			JOINT Neck
			{
				OFFSET -0.0000 25.0068 0.0000
				CHANNELS 3 Zrotation Xrotation Yrotation
				JOINT Head
				{
					OFFSET -0.0000 10.7556 0.0000
					CHANNELS 3 Zrotation Xrotation Yrotation
					End Site
					{
						OFFSET -0.0000 16.6222 0.0000
					}
				}
			}
			JOINT LeftCollar
			{
				OFFSET -0.0000 25.0068 0.0000
				CHANNELS 3 Zrotation Xrotation Yrotation
				JOINT LeftShoulder
				{
					OFFSET 19.5556 -0.0000 0.0000
					CHANNELS 3 Zrotation Xrotation Yrotation
					JOINT LeftElbow
					{
						OFFSET 27.1828 0.0000 0.0000
						CHANNELS 3 Zrotation Xrotation Yrotation
						JOINT LeftWrist
						{
							OFFSET 23.3157 0.0000 0.0000
							CHANNELS 3 Zrotation Xrotation Yrotation
							End Site
							{
								OFFSET 0.0000 -14.6667 0.0000
							}
						}
					}
				}
			}
			JOINT RightCollar
			{
				OFFSET -0.0000 25.0068 0.0000
				CHANNELS 3 Zrotation Xrotation Yrotation
				JOINT RightShoulder
				{
					OFFSET -19.5556 0.0000 0.0000
					CHANNELS 3 Zrotation Xrotation Yrotation
					JOINT RightElbow
					{
						OFFSET -27.1828 0.0000 0.0000
						CHANNELS 3 Zrotation Xrotation Yrotation
						JOINT RightWrist
						{
							OFFSET -23.3157 0.0000 0.0000
							CHANNELS 3 Zrotation Xrotation Yrotation
							End Site
							{
								OFFSET -0.0000 -14.6667 0.0000
							}
						}
					}
				}
			}
		}
	}
	JOINT LeftHip
	{
		OFFSET 11.7333 0.0000 0.0000
		CHANNELS 3 Zrotation Xrotation Yrotation
		JOINT LeftKnee
		{
			OFFSET -0.0000 -40.8688 0.0000
			CHANNELS 3 Zrotation Xrotation Yrotation
			JOINT LeftAnkle
			{
				OFFSET -0.0000 -44.4337 0.0000
				CHANNELS 3 Zrotation Xrotation Yrotation
				End Site
				{
					OFFSET -0.0000 -4.8889 16.6222
				}
			}
		}
	}
	JOINT RightHip
	{
		OFFSET -11.7333 0.0000 0.0000
		CHANNELS 3 Zrotation Xrotation Yrotation
		JOINT RightKnee
		{
			OFFSET -0.0000 -40.8688 0.0000
			CHANNELS 3 Zrotation Xrotation Yrotation
			JOINT RightAnkle
			{
				OFFSET -0.0000 -44.4337 0.0000
				CHANNELS 3 Zrotation Xrotation Yrotation
				End Site
				{
					OFFSET -0.0000 -4.8889 16.6222
				}
			}
		}
	}
}
MOTION
Frames: 18
Frame Time: 0.010000
-5.3973 88.8186 188.6755 2.7221 359.5730 175.8466 1.4864 359.3157 358.5505 358.5357 12.6867 358.7045 1.5939 357.3097 0.8958 0.9989 23.6160 0.6364 339.3912 358.5142 8.1784 301.5296 32.5032 352.8850 16.8603 354.3721 323.3154 81.9634 1.2490 342.4570 22.4202 359.3862 356.8624 59.5109 43.4392 9.6901 337.3814 354.1989 28.3537 277.7318 353.6286 18.0023 0.8809 356.6731 357.4412 358.9232 11.1792 357.8466 359.6741 352.6726 21.8224 1.0489 350.3478 0.5705 358.9799 19.3146 9.4741 358.5313 345.8181 338.3731 
-5.4130 88.8202 188.6667 2.7179 359.5674 175.8649 1.4674 359.3353 358.5437 358.5445 12.6758 358.6967 1.6206 357.3022 0.8635 0.9592 23.6241 0.6205 339.3912 358.5073 8.2106 301.5342 32.6697 352.8504 16.9543 354.3369 323.3750 81.9705 1.2088 342.5652 22.4098 359.3640 356.8424 59.5301 43.4781 9.6751 337.3129 354.1955 28.3457 277.7815 353.5252 17.9167 0.8714 356.6484 357.4150 358.9138 11.2137 357.8421 359.7859 352.6569 21.8385 1.0247 350.3543 0.5478 358.9901 19.3027 9.4606 358.4974 345.8327 338.3903 
-5.4312 88.8207 188.6576 2.7113 359.5636 175.8783 1.4366 359.3406 358.5415 358.5671 12.7023 358.6942 1.6318 357.2846 0.8479 0.9542 23.6013 0.6025 339.3884 358.5075 8.2150 301.5186 32.6976 352.8428 16.9649 354.3344 323.3749 81.9987 1.2120 342.5994 22.4033 359.3837 356.8280 59.4677 43.4448 9.7366 337.3127 354.2238 28.1123 277.7734 352.8552 17.4401 0.8536 356.6263 357.4279 358.9128 11.2533 357.7999 359.7566 352.6048 21.8464 1.0030 350.3651 0.5775 359.0001 19.2873 9.4309 358.5527 345.7822 338.3741 
-5.4514 88.8213 188.6472 2.7089 359.5550 175.8870 1.4035 359.3493 358.5501 358.5993 12.7039 358.6993 1.6291 357.2951 0.8219 0.9649 23.5711 0.5720 339.3775 358.5081 8.2011 301.4783 32.6872 352.8738 16.9699 354.3358 323.3492 81.9970 1.2326 342.6303 22.3933 359.3681 356.8203 59.4592 43.4290 9.7328 337.3196 354.2505 28.1838 277.7508 352.9409 17.6132 0.8409 356.5987 357.4030 358.9025 11.2966 357.8051 359.8422 352.6081 21.8662 0.9855 350.3779 0.6013 359.0098 19.2600 9.3810 358.7390 345.6628 338.3210 
-5.4735 88.8225 188.6370 2.7020 359.5412 175.8895 1.3746 359.3555 358.5532 358.6191 12.7022 358.7001 1.6292 357.3099 0.7940 0.9706 23.5427 0.5448 339.3777 358.5070 8.1798 301.4209 32.6255 352.9180 16.9455 354.3711 323.3259 82.0238 1.2079 342.5669 22.3921 359.3754 356.8098 59.4319 43.4161 9.7418 337.5997 354.3131 28.4068 277.3787 353.5495 18.7125 0.8239 356.5667 357.4018 358.8900 11.3422 357.8062 359.7784 352.5593 21.8652 0.9621 350.3769 0.6350 359.0270 19.2509 9.3374 358.5927 345.7717 338.4312 
-5.4962 88.8234 188.6247 2.7039 359.5422 175.8959 1.3470 359.3714 358.5603 358.6439 12.7240 358.7047 1.6313 357.2776 0.7758 0.9845 23.5473 0.5043 339.3775 358.5110 8.1629 301.3744 32.5643 352.9460 16.8951 354.3704 323.2827 82.0629 1.2257 342.4989 22.3807 359.3630 356.7983 59.4151 43.4235 9.7565 337.5762 354.2725 28.4398 277.4677 353.5649 18.7330 0.8136 356.5232 357.3832 358.8725 11.4350 357.8160 359.8170 352.5118 21.8804 0.9470 350.3947 0.6513 359.0320 19.2343 9.3134 358.6516 345.7448 338.4577 
-5.5222 88.8245 188.6116 2.7033 359.5377 175.8956 1.3298 359.3905 358.5674 358.6454 12.7266 358.7124 1.6413 357.2653 0.7448 1.0036 23.5471 0.4831 339.3811 358.5062 8.1664 301.3378 32.5924 352.9609 16.9560 354.3137 323.1750 81.9965 1.4212 342.7093 22.3819 359.3623 356.7930 59.4106 43.4236 9.7503 337.5849 354.2580 28.4532 277.4784 353.5461 18.7704 0.7983 356.5028 357.3658 358.8604 11.4775 357.8298 359.8115 352.4704 21.8981 0.9271 350.4055 0.6753 359.0404 19.2179 9.2767 358.6390 345.7462 338.4693 
-5.5504 88.8264 188.6032 2.7020 359.5129 175.8959 1.3124 359.4008 358.5781 358.6489 12.7164 358.7224 1.6407 357.2612 0.7079 1.0316 23.5447 0.4635 339.3840 358.5118 8.1408 301.2780 32.4825 353.0057 16.9571 354.2883 322.9724 81.9240 1.7564 342.9897 22.3823 359.3671 356.7911 59.4197 43.3897 9.7296 337.6526 354.2725 28.3940 277.3570 353.2671 18.9737 0.7823 356.4727 357.3646 358.8543 11.4947 357.8374 359.7740 352.4407 21.9131 0.9061 350.3864 0.6887 359.0489 19.2145 9.2487 359.0202 345.6842 338.5654 
-5.5828 88.8273 188.5936 2.7048 359.4893 175.9017 1.3159 359.4167 358.5763 358.6361 12.6957 358.7228 1.6115 357.3628 0.6131 1.0674 23.4865 0.3706 339.3884 358.5112 8.1257 301.2238 32.4245 353.0527 16.9256 354.2957 322.9323 81.9240 1.7613 342.9467 22.3856 359.3739 356.8005 59.4304 43.3497 9.6898 337.6837 354.3011 28.3789 277.2995 353.0793 19.0999 0.7686 356.4503 357.3451 358.8421 11.5001 357.8636 359.8163 352.4524 21.8925 0.8824 350.3726 0.7104 359.0587 19.2210 9.2282 359.0003 345.6752 338.5743 
-5.6192 88.8269 188.5818 2.7066 359.4727 175.9058 1.3247 359.4361 358.5736 358.6108 12.6801 358.7215 1.5901 357.4517 0.5277 1.0920 23.4450 0.3021 339.3996 358.5055 8.1192 301.1557 32.3485 353.1075 16.8914 354.2991 322.8825 81.9504 1.7649 342.8788 22.3856 359.3664 356.8255 59.4519 43.3352 9.6369 337.6540 354.2805 28.4205 277.3876 353.0560 19.0821 0.7482 356.4302 357.3501 358.8381 11.5190 357.8474 359.8449 352.4385 21.9097 0.8507 350.3657 0.7307 359.0758 19.2285 9.2098 358.7028 345.7141 338.5137 
-5.6553 88.8272 188.5686 2.7091 359.4603 175.8974 1.3138 359.4508 358.5810 358.6051 12.6830 358.7295 1.5850 357.4469 0.5257 1.1195 23.4436 0.2713 339.4038 358.5156 8.1062 301.0898 32.1962 353.1551 16.7785 354.3474 322.8345 82.0205 1.7647 342.7415 22.3846 359.3779 356.8431 59.4318 43.3270 9.6291 337.6683 354.2719 28.4440 277.4466 353.0261 19.0826 0.7278 356.4176 357.3616 358.8365 11.5360 357.8507 359.8543 352.4204 21.9067 0.8245 350.3588 0.7419 359.0871 19.2268 9.1996 359.0166 345.6490 338.5828 
-5.6945 88.8274 188.5580 2.7185 359.4386 175.8855 1.2949 359.4623 358.5966 358.6188 12.6859 358.7444 1.5965 357.4225 0.5058 1.1094 23.4665 0.2433 339.3941 358.5136 8.1303 301.0809 32.2542 353.1393 16.8056 354.3178 322.8329 81.9901 1.7484 342.7472 22.3757 359.3787 356.8341 59.3733 43.4365 9.6919 337.5301 354.2369 28.3360 277.6412 352.8866 18.6881 0.7156 356.4045 357.3797 358.8328 11.5351 357.8493 359.8630 352.4074 21.9136 0.8022 350.3419 0.7767 359.1054 19.2258 9.1756 359.2312 345.6053 338.6666 
-5.7361 88.8275 188.5426 2.7292 359.4362 175.8721 1.2881 359.5110 358.6061 358.6131 12.6517 358.7545 1.6090 357.4246 0.4860 1.1062 23.4910 0.2140 339.3829 358.4833 8.1902 301.1023 32.5164 353.1186 16.9528 354.2486 322.8983 81.9487 1.6932 342.9020 22.3769 359.3748 356.8355 59.3689 43.4774 9.6709 337.3742 354.1925 28.3023 277.6302 353.0265 18.0794 0.7022 356.4158 357.3955 358.8290 11.5311 357.8188 359.8781 352.3831 21.9490 0.7799 350.3471 0.7938 359.1162 19.2212 9.1763 358.8018 345.6549 338.5877 
-5.7804 88.8273 188.5208 2.7343 359.4398 175.8554 1.2935 359.5539 358.6083 358.5815 12.6285 358.7615 1.6131 357.4384 0.4741 1.0982 23.4891 0.2101 339.3745 358.5041 8.2486 301.1379 32.6912 353.0753 16.8165 354.3538 323.0487 82.8142 1.4718 343.2839 22.3881 359.3682 356.8513 59.3765 43.4755 9.6126 337.3538 354.1856 28.3621 277.5774 353.1552 18.0886 0.6829 356.4427 357.4045 358.8158 11.5213 357.8263 359.8584 352.3658 21.9420 0.7509 350.3679 0.8179 359.1279 19.2076 9.1573 358.8225 345.6433 338.6065 
-5.8275 88.8278 188.5004 2.7400 359.4334 175.8314 1.2805 359.5685 358.6179 358.5669 12.6440 358.7730 1.6260 357.4244 0.4769 1.1129 23.5181 0.2061 339.3826 358.5017 8.2992 301.1094 32.6992 353.0257 16.8186 354.3582 323.0811 82.9188 1.4200 343.2876 22.3947 359.3908 356.8594 59.3412 43.3551 9.6282 337.3912 354.2245 28.3627 278.0243 352.7219 18.0953 0.6615 356.4566 357.4169 358.8086 11.5100 357.8374 359.8795 352.3614 21.9485 0.7239 350.3795 0.8739 359.1402 19.1939 9.1364 358.8630 345.6348 338.6222 
-5.8761 88.8291 188.4788 2.7450 359.4229 175.8025 1.2583 359.5830 358.6287 358.5645 12.6542 358.7842 1.6211 357.4297 0.4686 1.1497 23.5088 0.1960 339.3792 358.4732 8.3309 301.0946 32.7438 353.0368 16.8238 354.3608 323.0809 83.0028 1.3778 343.3224 22.4329 359.3827 356.8085 59.2363 43.0521 9.6874 337.5171 354.2448 28.5104 278.2425 352.6808 18.3189 0.6402 356.4625 357.4386 358.7994 11.5110 357.8459 359.8911 352.3312 21.9496 0.7014 350.3848 0.9315 359.1392 19.1845 9.1407 358.8565 345.6522 338.5967 
-5.9264 88.8306 188.4569 2.7555 359.4058 175.7911 1.2501 359.5857 358.6307 358.5543 12.6795 358.7871 1.6203 357.4126 0.4630 1.1877 23.5087 0.1821 339.3866 358.4980 8.3105 301.0509 32.6224 353.0684 16.6755 354.4174 323.0882 83.1095 1.3139 343.2117 22.4376 359.3578 356.7990 59.2234 43.0429 9.6706 337.4976 354.2243 28.5853 278.2876 352.7169 18.2925 0.6243 356.4511 357.4525 358.7864 11.5325 357.8448 359.9519 352.2915 21.9554 0.6748 350.3995 0.9952 359.1759 19.1353 9.0425 358.8893 345.6194 338.6222 
-5.9821 88.8321 188.4308 2.7640 359.3980 175.7606 1.2312 359.6045 358.6424 358.5449 12.6841 358.8020 1.6223 357.4146 0.4594 1.1950 23.4999 0.1688 339.3925 358.4956 8.2490 300.9438 32.3184 353.1840 16.5483 354.4669 322.9513 83.1490 1.3623 343.0670 22.4357 359.3702 356.8167 59.2283 43.0315 9.6299 337.5393 354.2199 28.6166 278.2665 352.6655 18.3532 0.6014 356.4687 357.4726 358.7766 11.5217 357.8461 0.0422 352.3270 21.9736 0.6523 350.4149 1.0547 359.1802 19.1115 9.0020 358.9009 345.6075 338.6832 
